<svg width="94" height="92" viewBox="0 0 94 92" fill="none" xmlns="http://www.w3.org/2000/svg">
<rect width="94" height="92" rx="46" fill="#155DFC"/>
<path d="M19.4407 61.9793C18.3799 60.9185 18.3799 59.1985 19.4407 58.1377L21.8417 55.7366C21.8417 56.3769 32.7264 67.2615 33.3667 67.2615L30.9656 69.6626C29.9048 70.7234 28.1848 70.7234 27.124 69.6626L19.4407 61.9793Z" fill="white"/>
<path d="M24.883 54.6162C22.7614 52.4945 22.7614 49.0546 24.883 46.9329L32.8865 38.9295L50.1738 56.2168L42.1704 64.2202C40.0487 66.3419 36.6088 66.3419 34.4871 64.2202L24.883 54.6162Z" fill="white"/>
<path d="M64.2277 34.7541C64.2277 33.8987 64.9211 33.2053 65.7765 33.2053L71.8619 33.2053C72.7173 33.2053 73.4107 33.8987 73.4107 34.7541C73.4107 35.6095 72.7173 36.3029 71.8619 36.3029H65.7765C64.9211 36.3029 64.2277 35.6095 64.2277 34.7541Z" fill="white"/>
<path d="M59.6179 29.1653C58.999 28.5465 58.999 27.5432 59.6179 26.9243L64.4199 22.1223C65.0387 21.5035 66.042 21.5035 66.6609 22.1223C67.2797 22.7411 67.2797 23.7444 66.6609 24.3632L61.8588 29.1653C61.24 29.7841 60.2367 29.7841 59.6179 29.1653Z" fill="white"/>
<path d="M53.8574 24.3813C52.9822 24.3813 52.2728 23.6718 52.2728 22.7967L52.2728 16.0056C52.2728 15.1304 52.9822 14.421 53.8573 14.421C54.7325 14.421 55.4419 15.1304 55.4419 16.0056L55.4419 22.7967C55.4419 23.6718 54.7325 24.3813 53.8574 24.3813Z" fill="white"/>
<path d="M38.0172 16.8886C38.527 15.2671 40.5756 14.765 41.7775 15.967L72.8161 47.0055C74.018 48.2074 73.516 50.2561 71.8945 50.7659L54.6318 56.1929L32.5899 34.151L38.0172 16.8886Z" fill="white"/>
<path d="M43.1308 67.7418C43.1943 67.704 43.9312 67.5817 45.0516 66.4612C46.1721 65.3407 51.0654 60.4474 51.0654 60.4474L51.183 60.4168L55.1881 75.7486C55.4408 76.7162 54.8613 77.7055 53.8938 77.9583L48.0895 79.4746C47.1219 79.7273 46.1326 79.1478 45.8798 78.1803L43.1308 67.7418Z" fill="white"/>
</svg>
